<svg width="466" height="141" xmlns="http://www.w3.org/2000/svg" xmlns:xlink="http://www.w3.org/1999/xlink" overflow="hidden"><defs><clipPath id="clip0"><path d="M59 69 525 69 525 210 59 210Z" fill-rule="evenodd" clip-rule="evenodd"/></clipPath></defs><g clip-path="url(#clip0)" transform="translate(-59 -69)"><text fill="#44546A" font-family="Calibri,Calibri_MSFontService,sans-serif" font-weight="700" font-size="18" transform="translate(75.9997 141)">GSE59088_MIX_VAL_M_YNG_SED_LEA_HLY_H05_W08</text><path d="M0.432459-0.250956 11.1231 18.1717 10.2582 18.6736-0.432459 0.250956ZM13.4811 15.2618 14.0367 24.1888 6.56177 19.2771Z" fill="#44546A" transform="matrix(1 0 0 -1 102.5 172.689)"/><text fill="#44546A" font-family="Calibri,Calibri_MSFontService,sans-serif" font-weight="400" font-size="11" transform="translate(69.7403 187)">GEO accession <tspan x="14.7533" y="13">number</tspan><tspan x="43.463" y="-102">Mixed concentric and </tspan><tspan x="51.963" y="-89">eccentric exercise</tspan><tspan x="114.511" y="0">Vastus </tspan><tspan x="111.591" y="13">lateralis</tspan><tspan x="171.085" y="-89">Male</tspan><tspan x="189.807" y="0">Young</tspan><tspan x="185.054" y="13">age &lt; 35</tspan><tspan x="234.263" y="-89">Sedentary</tspan><tspan x="266.231" y="0">Lean</tspan><tspan x="313.509" y="-89">Healthy</tspan><tspan x="321.871" y="0">Biopsy collected 5h </tspan><tspan x="334.705" y="13">after exercise</tspan></text><path d="M0.437087-0.242806 10.6367 18.118 9.76255 18.6036-0.437087 0.242806ZM13.0489 15.2528 13.4371 24.1887 6.05546 19.1377Z" fill="#44546A" transform="matrix(1 0 0 -1 199.5 172.689)"/><path d="M0.495017-0.0704136 2.68121 15.2988 1.69117 15.4396-0.495017 0.0704136ZM5.95856 13.4859 3.12504 21.9694-1.96171 14.6125Z" fill="#44546A" transform="matrix(1 0 0 -1 274.5 172.469)"/><path d="M0.48462-0.123057 4.98601 17.6042 4.01677 17.8503-0.48462 0.123057ZM8.0502 15.4505 6.14215 24.1889 0.296275 17.4194Z" fill="#44546A" transform="matrix(1 0 0 -1 349.5 174.689)"/><path d="M435.188 172.585 427.198 157.617 428.08 157.146 436.07 172.115ZM424.738 160.441 424.5 151.5 431.796 156.674Z" fill="#44546A"/><path d="M0.450712-0.216468 4.62043 8.46537 3.719 8.89831-0.450712 0.216468ZM7.19817 5.7482 7.05596 14.6913-0.01323 9.21169Z" fill="#44546A" transform="matrix(-1 -8.74228e-08 -8.74228e-08 1 401.556 106.5)"/><path d="M0.444076-0.229774 5.63166 9.79608 4.7435 10.2556-0.444076 0.229774ZM8.12746 7.00346 8.25123 15.9469 1.02224 10.6798Z" fill="#44546A" transform="matrix(-1 -8.74228e-08 -8.74228e-08 1 327.751 106.5)"/><path d="M0.457866-0.200894 3.38621 6.47322 2.47048 6.87501-0.457866 0.200894ZM6.05556 3.84599 5.60693 12.779-1.27031 7.06029Z" fill="#44546A" transform="matrix(-1 -8.74228e-08 -8.74228e-08 1 253.107 106.5)"/><path d="M162.897 106.196 169.659 115.028 168.865 115.636 162.103 106.804ZM171.627 111.841 173.315 120.625 165.275 116.705Z" fill="#44546A"/><text fill="#44546A" font-family="Calibri,Calibri_MSFontService,sans-serif" font-weight="400" font-size="11" transform="translate(453.557 85)">8 weeks of <tspan x="6.58667" y="13">training</tspan></text><path d="M0.443097-0.231658 5.85133 10.1128 4.96514 10.5761-0.443097 0.231658ZM8.33525 7.30958 8.49701 16.2524 1.24571 11.0161Z" fill="#44546A" transform="matrix(-1 -8.74228e-08 -8.74228e-08 1 477.997 106.5)"/></g></svg>